<svg width="72" height="50" viewBox="0 0 72 50" fill="none" xmlns="http://www.w3.org/2000/svg">
<path id="Combined Shape" d="M16.6152 37.5C20.0508 37.5 22.8457 40.3038 22.8457 43.75C22.8457 47.1962 20.0508 50 16.6152 50C13.1797 49.9999 10.3848 47.1962 10.3848 43.75C10.3848 40.3038 13.1797 37.5001 16.6152 37.5ZM55.3848 37.5C58.8203 37.5001 61.6152 40.3038 61.6152 43.75C61.6152 47.1962 58.8203 49.9999 55.3848 50C51.9492 50 49.1543 47.1962 49.1543 43.75C49.1543 40.3038 51.9492 37.5 55.3848 37.5ZM14.5146 45.8564H18.7158V41.6436H14.5146V45.8564ZM53.2842 45.8564H57.4854V41.6436H53.2842V45.8564ZM48.4619 35.3965C46.2978 37.2608 44.9001 39.9957 44.8105 43.0557H27.0498C26.8845 37.4091 22.2629 32.8652 16.6016 32.8652C10.9402 32.8653 6.31865 37.409 6.15332 43.0557H0V29.1201H11.7695C13.2729 29.1201 14.4958 27.8918 14.4961 26.3818C14.4961 24.8717 13.2731 23.6426 11.7695 23.6426H8.34473V19.4131H26.2656C27.7692 19.4131 28.9931 18.1849 28.9932 16.6748C28.9932 15.1646 27.7692 13.9355 26.2656 13.9355H0V9.70703H16.6016C18.1052 9.70703 19.3281 8.47796 19.3281 6.96777C19.328 5.50889 17.9755 4.22953 16.4336 4.22949H13.127V0H48.4619V35.3965ZM72 43.0557H65.7832C65.6162 37.4001 60.9478 32.8497 55.2285 32.8496C54.3269 32.8496 53.4512 32.9631 52.6152 33.1758V23.6113H72V43.0557ZM4.1543 23.6113H0V19.4443H4.1543V23.6113ZM70.6152 19.4443H52.6152V4.86133H61.0625L70.6152 19.4443ZM9 4.16699H4.8457V0H9V4.16699Z" fill="#FDD6BA"/>
</svg>
