<svg width="235" height="25" viewBox="0 0 235 25" fill="none" xmlns="http://www.w3.org/2000/svg">
<g id="Group 5">
<path id="coffeeroasters" fill-rule="evenodd" clip-rule="evenodd" d="M74.7516 22.8595C74.7516 23.3664 74.4963 23.6198 73.9856 23.6198H64.9887C64.7714 23.6198 64.5948 23.5565 64.459 23.4298C64.3232 23.303 64.2553 23.124 64.2553 22.8926C64.2553 22.6942 64.3014 22.5344 64.3938 22.4132C64.4862 22.292 64.6301 22.1928 64.8257 22.1157L65.5266 21.9008C65.7004 21.8457 65.8362 21.741 65.934 21.5868C66.0318 21.4325 66.0807 21.2121 66.0807 20.9256V11.3719C66.0807 11.2176 66.0427 11.0882 65.9666 10.9835C65.8906 10.8788 65.7493 10.7824 65.5429 10.6942L64.5975 10.3802C64.3476 10.259 64.1683 10.1295 64.0597 9.99174C63.951 9.85399 63.8967 9.68595 63.8967 9.4876C63.8967 9.28926 63.9646 9.12672 64.1004 9L64.1538 8.95545C64.2839 8.85843 64.4536 8.80992 64.6627 8.80992H66.0929L66.0817 8.71333C66.0512 8.52014 65.9748 8.33471 65.8525 8.15702C65.6895 7.92011 65.5048 7.65289 65.2984 7.35537C65.0919 7.05785 64.9072 6.70248 64.7442 6.28926C64.5812 5.87603 64.4997 5.36639 64.4997 4.76033C64.4997 3.3168 64.9887 2.16253 65.9666 1.29752C66.9445 0.432507 68.3354 0 70.1391 0C71.3017 0 72.2661 0.187328 73.0321 0.561983C73.7981 0.936639 74.3713 1.43526 74.7516 2.05785C75.1319 2.68044 75.3221 3.36088 75.3221 4.09917C75.3221 4.9697 75.0966 5.62259 74.6457 6.05785C74.1947 6.49311 73.6161 6.71074 72.9099 6.71074C72.1275 6.71074 71.4973 6.4573 71.0192 5.95041C70.5411 5.44353 70.3021 4.77135 70.3021 3.93388V2.46281C70.3021 2.07713 70.226 1.79339 70.0739 1.61157C69.9218 1.42975 69.6882 1.33884 69.373 1.33884C68.971 1.33884 68.6668 1.47658 68.4603 1.75207C68.2539 2.02755 68.1506 2.42424 68.1506 2.94215C68.1506 3.47107 68.2729 3.96694 68.5174 4.42975C68.7618 4.89256 69.0634 5.32507 69.4219 5.72727C69.7805 6.12948 70.1391 6.51515 70.4977 6.8843C70.8562 7.25344 71.1577 7.61708 71.4022 7.97521L71.4719 8.08256C71.6039 8.29711 71.6919 8.51066 71.7359 8.72322L71.7508 8.80992H74.1649C74.4148 8.80992 74.6076 8.86226 74.7435 8.96694C74.8793 9.07162 74.9472 9.23416 74.9472 9.45455C74.9472 9.78512 74.8059 10.0551 74.5234 10.2645C74.2409 10.4738 73.7954 10.5785 73.1869 10.5785H72.0297V20.876C72.0297 21.1846 72.0759 21.4215 72.1683 21.5868C72.2606 21.7521 72.41 21.8512 72.6165 21.8843L74.0182 22.0992C74.2681 22.1322 74.4528 22.2121 74.5723 22.3388C74.6918 22.4656 74.7516 22.6391 74.7516 22.8595ZM42.6595 23.2397C41.6816 23.7135 40.5407 23.9504 39.2368 23.9504C37.8568 23.9504 36.6209 23.6584 35.5288 23.0744C34.4368 22.4904 33.5757 21.6446 32.9455 20.5372C32.3153 19.4298 32.0002 18.0826 32.0002 16.4959C32.0002 14.9642 32.3289 13.595 32.9863 12.3884C33.6436 11.1818 34.5591 10.2287 35.7326 9.52892C36.9061 8.8292 38.2752 8.47934 39.8398 8.47934C41.1763 8.47934 42.3037 8.67769 43.2218 9.07438C44.14 9.47107 44.8408 10.0083 45.3244 10.686C45.8079 11.3636 46.0496 12.1212 46.0496 12.9587C46.0496 13.8402 45.797 14.5317 45.2918 15.0331C44.7865 15.5344 44.0992 15.7851 43.23 15.7851C42.339 15.7851 41.6626 15.5289 41.2008 15.0165C40.739 14.5041 40.5081 13.8017 40.5081 12.9091V11.8512C40.5081 11.3113 40.4103 10.9036 40.2147 10.6281C40.0191 10.3526 39.7421 10.2149 39.3835 10.2149C39.0249 10.2149 38.7017 10.3609 38.4137 10.6529C38.1258 10.9449 37.903 11.3829 37.7455 11.9669C37.5879 12.551 37.5091 13.2727 37.5091 14.1322C37.5091 15.3664 37.6911 16.4022 38.0551 17.2397C38.4191 18.0771 38.9163 18.7052 39.5465 19.124C40.1767 19.5427 40.8938 19.7521 41.6979 19.7521C42.502 19.7521 43.1756 19.6336 43.7189 19.3967C44.2622 19.1598 44.6806 18.7603 44.9739 18.1983C45.1369 18.0441 45.2646 17.9449 45.3569 17.9008C45.4493 17.8567 45.5389 17.8347 45.6259 17.8347C45.7345 17.8457 45.8242 17.8981 45.8948 17.9917C45.9654 18.0854 45.9953 18.2314 45.9844 18.4298C45.8975 19.5096 45.5661 20.4628 44.9902 21.2893C44.4143 22.1157 43.6374 22.7658 42.6595 23.2397ZM59.2271 22.9091C58.0047 23.5813 56.584 23.9174 54.965 23.9174C53.3895 23.9174 52.0068 23.5895 50.817 22.9339C49.6272 22.2782 48.7009 21.3719 48.0381 20.2149C47.3753 19.0579 47.0439 17.719 47.0439 16.1983C47.0439 14.7438 47.3916 13.4353 48.087 12.2727C48.7824 11.1102 49.744 10.1873 50.9718 9.50413C52.1997 8.82094 53.6122 8.47934 55.2095 8.47934C56.7959 8.47934 58.1813 8.80992 59.3657 9.47107C60.55 10.1322 61.4736 11.0468 62.1364 12.2149C62.7992 13.3829 63.1307 14.7328 63.1307 16.2645C63.1307 17.719 62.7857 19.022 62.0957 20.1736C61.4057 21.3251 60.4495 22.2369 59.2271 22.9091ZM56.2037 22.1983C55.8669 22.2645 55.5382 22.1157 55.2176 21.7521C54.8971 21.3884 54.5929 20.7769 54.3049 19.9174C54.017 19.0579 53.7426 17.9284 53.4818 16.5289C53.2319 15.1295 53.0907 13.978 53.0581 13.0744C53.0255 12.1708 53.0907 11.4876 53.2537 11.0248C53.4166 10.562 53.6666 10.292 54.0034 10.2149C54.3402 10.1488 54.6689 10.2975 54.9895 10.6612C55.31 11.0248 55.617 11.6364 55.9103 12.4959C56.2037 13.3554 56.4808 14.4848 56.7416 15.8843C57.0024 17.2837 57.1463 18.438 57.1735 19.3471C57.2007 20.2562 57.13 20.9421 56.9616 21.405C56.7932 21.8678 56.5406 22.1322 56.2037 22.1983ZM85.362 23.6198C85.8727 23.6198 86.1281 23.3664 86.1281 22.8595C86.1281 22.6391 86.0683 22.4656 85.9488 22.3388C85.8293 22.2121 85.6446 22.1322 85.3946 22.0992L83.993 21.8843C83.7865 21.8512 83.6371 21.7521 83.5447 21.5868C83.4524 21.4215 83.4062 21.1846 83.4062 20.876V10.5785H84.5634C85.1719 10.5785 85.6174 10.4738 85.8999 10.2645C86.1824 10.0551 86.3237 9.78512 86.3237 9.45455C86.3237 9.23416 86.2558 9.07162 86.1199 8.96694C85.9841 8.86226 85.7912 8.80992 85.5413 8.80992H83.1273L83.1124 8.72322C83.0684 8.51066 82.9804 8.29711 82.8484 8.08256L82.7787 7.97521C82.5342 7.61708 82.2327 7.25344 81.8741 6.8843C81.5156 6.51515 81.157 6.12948 80.7984 5.72727C80.4398 5.32507 80.1383 4.89256 79.8938 4.42975C79.6494 3.96694 79.5271 3.47107 79.5271 2.94215C79.5271 2.42424 79.6303 2.02755 79.8368 1.75207C80.0432 1.47658 80.3475 1.33884 80.7495 1.33884C81.0646 1.33884 81.2982 1.42975 81.4504 1.61157C81.6025 1.79339 81.6785 2.07713 81.6785 2.46281V3.93388C81.6785 4.77135 81.9176 5.44353 82.3957 5.95041C82.8738 6.4573 83.504 6.71074 84.2863 6.71074C84.9926 6.71074 85.5712 6.49311 86.0221 6.05785C86.4731 5.62259 86.6985 4.9697 86.6985 4.09917C86.6985 3.36088 86.5084 2.68044 86.1281 2.05785C85.7478 1.43526 85.1746 0.936639 84.4086 0.561983C83.6425 0.187328 82.6782 0 81.5156 0C79.7118 0 78.321 0.432507 77.3431 1.29752C76.3652 2.16253 75.8762 3.3168 75.8762 4.76033C75.8762 5.36639 75.9577 5.87603 76.1207 6.28926C76.2837 6.70248 76.4684 7.05785 76.6749 7.35537C76.8813 7.65289 77.066 7.92011 77.229 8.15702C77.3512 8.33471 77.4276 8.52014 77.4582 8.71333L77.4694 8.80992H76.0392C75.83 8.80992 75.6604 8.85843 75.5303 8.95545L75.4769 9C75.3411 9.12672 75.2732 9.28926 75.2732 9.4876C75.2732 9.68595 75.3275 9.85399 75.4362 9.99174C75.5448 10.1295 75.7241 10.259 75.974 10.3802L76.9193 10.6942C77.1258 10.7824 77.267 10.8788 77.3431 10.9835C77.4192 11.0882 77.4572 11.2176 77.4572 11.3719V20.9256C77.4572 21.2121 77.4083 21.4325 77.3105 21.5868C77.2127 21.741 77.0769 21.8457 76.903 21.9008L76.2022 22.1157C76.0066 22.1928 75.8626 22.292 75.7703 22.4132C75.6779 22.5344 75.6317 22.6942 75.6317 22.8926C75.6317 23.124 75.6996 23.303 75.8355 23.4298C75.9713 23.5565 76.1479 23.6198 76.3652 23.6198H85.362ZM98.1239 23.1405C97.0699 23.6804 95.853 23.9504 94.473 23.9504C92.9518 23.9504 91.6153 23.6336 90.4635 23C89.3118 22.3664 88.4126 21.4793 87.7661 20.3388C87.1196 19.1983 86.7963 17.8788 86.7963 16.3802C86.7963 14.8044 87.1087 13.4242 87.7335 12.2397C88.3583 11.0551 89.2629 10.1322 90.4472 9.47107C91.6316 8.80992 93.055 8.47934 94.7175 8.47934C96.13 8.47934 97.347 8.75758 98.3684 9.31405C99.3898 9.87052 100.175 10.6253 100.724 11.5785C101.272 12.5317 101.547 13.5923 101.547 14.7603C101.547 15.2672 101.411 15.6667 101.139 15.9587L101.074 16.0235C100.807 16.2723 100.437 16.3967 99.9657 16.3967H92.5149L92.5309 16.4729C92.7286 17.3804 93.0663 18.1071 93.544 18.6529C94.3589 19.584 95.4455 20.0496 96.8037 20.0496C97.673 20.0496 98.4417 19.8512 99.11 19.4545C99.7782 19.0578 100.226 18.5069 100.455 17.8017C100.585 17.6584 100.702 17.562 100.805 17.5124C100.908 17.4628 100.998 17.438 101.074 17.438C101.183 17.438 101.275 17.4821 101.351 17.5702C101.427 17.6584 101.465 17.8072 101.465 18.0165C101.465 19.0964 101.172 20.0854 100.585 20.9835C99.9983 21.8815 99.1779 22.6005 98.1239 23.1405ZM92.3448 15.0717C92.3293 14.8181 92.3216 14.5546 92.3216 14.281C92.3216 13.2452 92.3976 12.4298 92.5498 11.8347C92.7019 11.2397 92.8975 10.8182 93.1365 10.5702C93.3756 10.3223 93.6418 10.1983 93.9351 10.1983C94.3154 10.1983 94.6713 10.5234 95.0027 11.1736C95.3341 11.8237 95.4998 12.9036 95.4998 14.4132C95.4998 14.876 95.2934 15.1074 94.8805 15.1074H92.3469L92.3448 15.0717ZM113.705 23.1405C112.651 23.6804 111.434 23.9504 110.055 23.9504C108.533 23.9504 107.197 23.6336 106.045 23C104.893 22.3664 103.994 21.4793 103.348 20.3388C102.701 19.1983 102.378 17.8788 102.378 16.3802C102.378 14.8044 102.69 13.4242 103.315 12.2397C103.94 11.0551 104.844 10.1322 106.029 9.47107C107.213 8.80992 108.637 8.47934 110.299 8.47934C111.712 8.47934 112.929 8.75758 113.95 9.31405C114.971 9.87052 115.756 10.6253 116.305 11.5785C116.854 12.5317 117.128 13.5923 117.128 14.7603C117.128 15.2672 116.992 15.6667 116.721 15.9587L116.656 16.0235C116.388 16.2723 116.019 16.3967 115.547 16.3967H108.096L108.112 16.4729C108.31 17.3804 108.648 18.1071 109.126 18.6529C109.94 19.584 111.027 20.0496 112.385 20.0496C113.255 20.0496 114.023 19.8512 114.692 19.4545C115.36 19.0578 115.808 18.5069 116.036 17.8017C116.167 17.6584 116.283 17.562 116.387 17.5124C116.49 17.4628 116.579 17.438 116.656 17.438C116.764 17.438 116.857 17.4821 116.933 17.5702C117.009 17.6584 117.047 17.8072 117.047 18.0165C117.047 19.0964 116.753 20.0854 116.167 20.9835C115.58 21.8815 114.759 22.6005 113.705 23.1405ZM107.926 15.0717C107.911 14.8181 107.903 14.5546 107.903 14.281C107.903 13.2452 107.979 12.4298 108.131 11.8347C108.283 11.2397 108.479 10.8182 108.718 10.5702C108.957 10.3223 109.223 10.1983 109.517 10.1983C109.897 10.1983 110.253 10.5234 110.584 11.1736C110.916 11.8237 111.081 12.9036 111.081 14.4132C111.081 14.876 110.875 15.1074 110.462 15.1074H107.928L107.926 15.0717ZM127.6 23.4132C127.464 23.551 127.266 23.6198 127.005 23.6198H118.856C118.617 23.6198 118.429 23.5537 118.294 23.4215C118.158 23.2893 118.09 23.1074 118.09 22.876C118.09 22.6997 118.131 22.5537 118.212 22.438C118.294 22.3223 118.405 22.2149 118.546 22.1157L118.921 21.9669C119.062 21.9008 119.16 21.7961 119.214 21.6529C119.269 21.5096 119.296 21.2727 119.296 20.9421V12.5455C119.296 12.281 119.266 12.0909 119.206 11.9752C119.146 11.8595 119.046 11.7686 118.905 11.7025L118.481 11.6529C118.329 11.5647 118.217 11.4711 118.147 11.3719C118.076 11.2727 118.041 11.146 118.041 10.9917C118.041 10.8154 118.095 10.6584 118.204 10.5207C118.313 10.3829 118.497 10.2645 118.758 10.1653L123.387 8.82645C123.658 8.71625 123.887 8.63912 124.071 8.59504C124.256 8.55096 124.414 8.52893 124.544 8.52893C124.729 8.52893 124.867 8.59504 124.96 8.72727L124.989 8.77523C125.066 8.91344 125.118 9.13437 125.147 9.43802L125.271 12.0064L125.299 11.9116C125.355 11.7327 125.415 11.5611 125.481 11.3967C125.878 10.4105 126.402 9.67769 127.054 9.19835C127.706 8.71901 128.418 8.47934 129.189 8.47934C130.124 8.47934 130.841 8.79339 131.341 9.42149C131.84 10.0496 132.09 11.0028 132.09 12.281C132.09 13.5482 131.83 14.4793 131.308 15.0744C130.786 15.6694 130.113 15.9669 129.287 15.9669C128.483 15.9669 127.888 15.7631 127.502 15.3554C127.117 14.9477 126.913 14.3691 126.891 13.6198L126.875 12.9587C126.864 12.7052 126.815 12.5069 126.728 12.3636C126.641 12.2204 126.5 12.1488 126.304 12.1488C126.109 12.1488 125.938 12.2507 125.791 12.4545C125.644 12.6584 125.533 12.9697 125.457 13.3884C125.381 13.8072 125.343 14.3416 125.343 14.9917V20.8099C125.343 21.1185 125.392 21.3636 125.489 21.5455C125.587 21.7273 125.739 21.8402 125.946 21.8843L127.168 22.1322C127.396 22.1653 127.559 22.2507 127.657 22.3884C127.755 22.5262 127.804 22.6887 127.804 22.876C127.804 23.0964 127.736 23.2755 127.6 23.4132ZM140.631 23.9174C142.25 23.9174 143.671 23.5813 144.893 22.9091C146.115 22.2369 147.072 21.3251 147.762 20.1736C148.451 19.022 148.796 17.719 148.796 16.2645C148.796 14.7328 148.465 13.3829 147.802 12.2149C147.139 11.0468 146.216 10.1322 145.031 9.47107C143.847 8.80992 142.462 8.47934 140.875 8.47934C139.278 8.47934 137.866 8.82094 136.638 9.50413C135.41 10.1873 134.448 11.1102 133.753 12.2727C133.057 13.4353 132.71 14.7438 132.71 16.1983C132.71 17.719 133.041 19.0579 133.704 20.2149C134.367 21.3719 135.293 22.2782 136.483 22.9339C137.673 23.5895 139.055 23.9174 140.631 23.9174ZM140.883 21.7521C141.204 22.1157 141.533 22.2645 141.87 22.1983C142.206 22.1322 142.459 21.8678 142.627 21.405C142.796 20.9421 142.866 20.2562 142.839 19.3471C142.812 18.438 142.668 17.2837 142.407 15.8843C142.147 14.4848 141.87 13.3554 141.576 12.4959C141.283 11.6364 140.976 11.0248 140.655 10.6612C140.335 10.2975 140.006 10.1488 139.669 10.2149C139.332 10.292 139.082 10.562 138.919 11.0248C138.757 11.4876 138.691 12.1708 138.724 13.0744C138.757 13.978 138.898 15.1295 139.148 16.5289C139.408 17.9284 139.683 19.0579 139.971 19.9174C140.259 20.7769 140.563 21.3884 140.883 21.7521ZM161.721 23.9504C162.634 23.9504 163.384 23.7824 163.971 23.4463C164.557 23.1102 164.995 22.7107 165.283 22.2479C165.571 21.7851 165.715 21.3609 165.715 20.9752C165.715 20.8099 165.679 20.6722 165.609 20.562C165.538 20.4518 165.443 20.3967 165.323 20.3967C165.269 20.3967 165.22 20.4077 165.177 20.4298C165.133 20.4518 165.095 20.4848 165.063 20.5289C165.008 20.7273 164.924 20.865 164.81 20.9421C164.696 21.0193 164.574 21.0578 164.443 21.0578C164.258 21.0578 164.12 20.9945 164.028 20.8678C163.935 20.741 163.889 20.573 163.889 20.3636V13.0579C163.889 11.6033 163.397 10.4766 162.414 9.67769C161.431 8.87879 159.89 8.47934 157.793 8.47934C156.163 8.47934 154.803 8.6832 153.711 9.09091C152.619 9.49862 151.798 10.0193 151.249 10.6529C150.701 11.2865 150.426 11.9339 150.426 12.595C150.426 13.3003 150.63 13.8375 151.038 14.2066C151.445 14.5758 152.034 14.7603 152.806 14.7603C153.751 14.7603 154.496 14.5041 155.039 13.9917C155.582 13.4793 155.854 12.8154 155.854 12V10.7438C155.854 10.4353 155.949 10.1956 156.139 10.0248C156.329 9.85399 156.566 9.76859 156.848 9.76859C157.152 9.76859 157.394 9.88154 157.573 10.1074C157.753 10.3333 157.842 10.6391 157.842 11.0248L157.842 15.843L157.755 15.8241C157.493 15.7735 157.189 15.7446 156.845 15.7373L156.669 15.7355C154.333 15.7355 152.591 16.1322 151.445 16.9256C150.299 17.719 149.726 18.8264 149.726 20.2479C149.726 21.3278 150.119 22.2149 150.907 22.9091C151.695 23.6033 152.741 23.9504 154.045 23.9504C155.023 23.9504 155.935 23.7493 156.783 23.3471C157.418 23.0455 157.935 22.6493 158.332 22.1586L158.355 22.1299L158.379 22.2039C158.504 22.5612 158.733 22.8813 159.067 23.1642L159.171 23.2479C159.774 23.7163 160.624 23.9504 161.721 23.9504ZM156.106 20.8347C156.373 21.1928 156.723 21.3719 157.158 21.3719L157.251 21.3687C157.436 21.3558 157.616 21.3041 157.789 21.2137L157.842 21.1837V16.9422L157.761 16.9174C157.576 16.8678 157.359 16.843 157.109 16.843C156.685 16.843 156.345 17.0413 156.09 17.438C155.835 17.8347 155.707 18.4187 155.707 19.1901C155.707 19.9284 155.84 20.4766 156.106 20.8347ZM173.212 24C175.146 24 176.629 23.5537 177.661 22.6612C178.694 21.7686 179.21 20.551 179.21 19.0083C179.21 18.0716 179.036 17.2507 178.688 16.5455C178.341 15.8402 177.732 15.2149 176.863 14.6694C175.994 14.124 174.771 13.6088 173.196 13.124C172.609 12.9366 172.155 12.7466 171.835 12.5537C171.514 12.3609 171.294 12.1543 171.175 11.9339C171.055 11.7135 170.995 11.4766 170.995 11.2231C170.995 10.8485 171.131 10.5455 171.403 10.314C171.674 10.0826 172.076 9.96694 172.609 9.96694C173.348 9.96694 174.046 10.2149 174.703 10.7107C175.361 11.2066 176.086 12.0551 176.879 13.2562C177.086 13.5096 177.292 13.6942 177.498 13.8099C177.705 13.9256 177.9 13.9614 178.085 13.9174C178.313 13.8512 178.455 13.6997 178.509 13.4628C178.563 13.2259 178.552 12.8871 178.476 12.4463L178.053 9.40496C178.009 9.0854 177.928 8.8595 177.808 8.72727C177.689 8.59504 177.531 8.52893 177.335 8.52893C177.162 8.52893 176.944 8.58953 176.684 8.71074C176.423 8.83196 176.165 8.95592 175.909 9.08264C175.654 9.20937 175.461 9.27273 175.331 9.27273C175.211 9.27273 175.035 9.20661 174.801 9.07438C174.567 8.94215 174.239 8.80992 173.815 8.67769C173.391 8.54545 172.842 8.47934 172.169 8.47934C171.05 8.47934 170.042 8.6832 169.145 9.09091C168.249 9.49862 167.543 10.0799 167.027 10.8347C166.51 11.5895 166.252 12.4904 166.252 13.5372C166.252 14.4628 166.445 15.2727 166.831 15.9669C167.217 16.6612 167.806 17.2562 168.599 17.7521C169.393 18.2479 170.392 18.6501 171.598 18.9587C172.381 19.168 172.981 19.3802 173.399 19.595C173.818 19.8099 174.106 20.0441 174.263 20.2975C174.421 20.551 174.499 20.832 174.499 21.1405C174.499 21.5482 174.364 21.8843 174.092 22.1488C173.82 22.4132 173.407 22.5455 172.853 22.5455C172.332 22.5455 171.835 22.4325 171.362 22.2066C170.889 21.9807 170.403 21.5923 169.903 21.0413C169.403 20.4904 168.844 19.7355 168.225 18.7769C168.04 18.5234 167.831 18.3471 167.597 18.2479C167.363 18.1488 167.127 18.1543 166.888 18.2645C166.66 18.3526 166.513 18.5399 166.448 18.8264C166.383 19.1129 166.399 19.4656 166.497 19.8843L167.002 23.1736C167.078 23.5041 167.187 23.7245 167.328 23.8347C167.469 23.9449 167.621 24 167.784 24C167.969 24 168.195 23.9394 168.461 23.8182L169.259 23.4545C169.526 23.3333 169.74 23.2727 169.903 23.2727C170.066 23.2727 170.281 23.3333 170.547 23.4545C170.813 23.5758 171.161 23.697 171.59 23.8182C172.019 23.9394 172.56 24 173.212 24ZM188.663 23.3802C187.946 23.7603 187.098 23.9504 186.12 23.9504C184.469 23.9504 183.227 23.5482 182.396 22.7438C181.565 21.9394 181.149 20.6722 181.149 18.9422V11.4711C181.149 11.2397 181.128 11.0634 181.084 10.9421C181.041 10.8209 180.932 10.7218 180.758 10.6446L179.992 10.3967C179.807 10.3085 179.688 10.2011 179.634 10.0744C179.579 9.94766 179.552 9.79063 179.552 9.60331C179.552 9.3719 179.634 9.18182 179.797 9.03306C179.96 8.8843 180.161 8.80992 180.4 8.80992H181.198C181.296 8.80992 181.399 8.77135 181.508 8.69421C181.617 8.61708 181.763 8.46281 181.948 8.23141L184.963 5.70248C185.181 5.43802 185.398 5.23691 185.615 5.09917C185.833 4.96143 186.05 4.89256 186.267 4.89256C186.517 4.89256 186.713 4.9697 186.854 5.12397L186.898 5.17866C187.01 5.3332 187.066 5.55739 187.066 5.85124L187.065 8.80992H190.472C190.711 8.80992 190.896 8.86226 191.026 8.96694C191.157 9.07163 191.222 9.23416 191.222 9.45455C191.222 9.76309 191.086 10.0275 190.814 10.2479L190.754 10.2935C190.48 10.4835 190.066 10.5785 189.511 10.5785H187.065L187.066 18.1157C187.066 18.9421 187.204 19.5537 187.481 19.9504C187.758 20.3471 188.163 20.5455 188.696 20.5455C188.924 20.5455 189.136 20.4959 189.331 20.3967C189.527 20.2975 189.703 20.168 189.861 20.0083C190.019 19.8485 190.168 19.6694 190.309 19.4711C190.45 19.2727 190.586 19.0744 190.717 18.876C190.825 18.832 190.92 18.8512 191.002 18.9339C191.083 19.0165 191.119 19.1846 191.108 19.438C191.032 20.3306 190.785 21.1157 190.366 21.7934C189.948 22.4711 189.38 23 188.663 23.3802ZM199.339 23.9504C200.719 23.9504 201.936 23.6804 202.99 23.1405C204.044 22.6005 204.864 21.8815 205.451 20.9835C206.037 20.0854 206.331 19.0964 206.331 18.0165C206.331 17.8072 206.293 17.6584 206.217 17.5702C206.141 17.4821 206.048 17.438 205.94 17.438C205.864 17.438 205.774 17.4628 205.671 17.5124C205.567 17.562 205.451 17.6584 205.32 17.8017C205.092 18.5069 204.644 19.0578 203.976 19.4545C203.307 19.8512 202.539 20.0496 201.669 20.0496C200.311 20.0496 199.225 19.584 198.41 18.6529C197.932 18.1071 197.594 17.3804 197.397 16.4729L197.381 16.3967H204.831C205.303 16.3967 205.672 16.2723 205.94 16.0235L206.005 15.9587C206.276 15.6667 206.412 15.2672 206.412 14.7603C206.412 13.5923 206.138 12.5317 205.589 11.5785C205.04 10.6253 204.255 9.87052 203.234 9.31405C202.213 8.75758 200.996 8.47934 199.583 8.47934C197.921 8.47934 196.497 8.80992 195.313 9.47107C194.129 10.1322 193.224 11.0551 192.599 12.2397C191.974 13.4242 191.662 14.8044 191.662 16.3802C191.662 17.8788 191.985 19.1983 192.632 20.3388C193.278 21.4793 194.177 22.3664 195.329 23C196.481 23.6336 197.817 23.9504 199.339 23.9504ZM197.187 14.281C197.187 14.5546 197.195 14.8181 197.211 15.0717L197.213 15.1074H199.746C200.159 15.1074 200.365 14.876 200.365 14.4132C200.365 12.9036 200.2 11.8237 199.868 11.1736C199.537 10.5234 199.181 10.1983 198.801 10.1983C198.507 10.1983 198.241 10.3223 198.002 10.5702C197.763 10.8182 197.568 11.2397 197.415 11.8347C197.263 12.4298 197.187 13.2452 197.187 14.281ZM216.289 23.6198C216.55 23.6198 216.748 23.551 216.884 23.4132C217.02 23.2755 217.088 23.0964 217.088 22.876C217.088 22.6887 217.039 22.5262 216.941 22.3884C216.843 22.2507 216.68 22.1653 216.452 22.1322L215.23 21.8843C215.023 21.8402 214.871 21.7273 214.774 21.5455C214.676 21.3636 214.627 21.1185 214.627 20.8099V14.9917C214.627 14.3416 214.665 13.8072 214.741 13.3884C214.817 12.9697 214.928 12.6584 215.075 12.4545C215.222 12.2507 215.393 12.1488 215.588 12.1488C215.784 12.1488 215.925 12.2204 216.012 12.3636C216.099 12.5069 216.148 12.7052 216.159 12.9587L216.175 13.6198C216.197 14.3691 216.401 14.9477 216.786 15.3554C217.172 15.7631 217.767 15.9669 218.571 15.9669C219.397 15.9669 220.071 15.6694 220.592 15.0744C221.114 14.4793 221.374 13.5482 221.374 12.281C221.374 11.0028 221.125 10.0496 220.625 9.42149C220.125 8.79339 219.408 8.47934 218.473 8.47934C217.702 8.47934 216.99 8.71901 216.338 9.19835C215.686 9.67769 215.162 10.4105 214.765 11.3967C214.699 11.5611 214.639 11.7327 214.584 11.9116L214.555 12.0069L214.431 9.43802C214.402 9.13437 214.35 8.91344 214.273 8.77523L214.244 8.72727C214.151 8.59504 214.013 8.52893 213.828 8.52893C213.698 8.52893 213.54 8.55096 213.356 8.59504C213.171 8.63912 212.943 8.71625 212.671 8.82645L208.042 10.1653C207.781 10.2645 207.597 10.3829 207.488 10.5207C207.379 10.6584 207.325 10.8154 207.325 10.9917C207.325 11.146 207.36 11.2727 207.431 11.3719C207.502 11.4711 207.613 11.5647 207.765 11.6529L208.189 11.7025C208.33 11.7686 208.431 11.8595 208.49 11.9752C208.55 12.0909 208.58 12.281 208.58 12.5455V20.9421C208.58 21.2727 208.553 21.5096 208.499 21.6529C208.444 21.7961 208.346 21.9008 208.205 21.9669L207.83 22.1157C207.689 22.2149 207.578 22.3223 207.496 22.438C207.415 22.5537 207.374 22.6997 207.374 22.876C207.374 23.1074 207.442 23.2893 207.578 23.4215C207.713 23.5537 207.901 23.6198 208.14 23.6198H216.289ZM233.452 22.6612C232.42 23.5537 230.936 24 229.002 24C228.35 24 227.81 23.9394 227.381 23.8182C226.951 23.697 226.604 23.5758 226.337 23.4545C226.071 23.3333 225.857 23.2727 225.694 23.2727C225.531 23.2727 225.316 23.3333 225.05 23.4545L224.251 23.8182C223.985 23.9394 223.76 24 223.575 24C223.412 24 223.26 23.9449 223.118 23.8347C222.977 23.7245 222.869 23.5041 222.792 23.1736L222.287 19.8843C222.189 19.4656 222.173 19.1129 222.238 18.8264C222.304 18.5399 222.45 18.3526 222.678 18.2645C222.917 18.1543 223.154 18.1488 223.387 18.2479C223.621 18.3471 223.83 18.5234 224.015 18.7769C224.634 19.7355 225.194 20.4904 225.694 21.0413C226.193 21.5923 226.68 21.9807 227.152 22.2066C227.625 22.4325 228.122 22.5455 228.644 22.5455C229.198 22.5455 229.611 22.4132 229.882 22.1488C230.154 21.8843 230.29 21.5482 230.29 21.1405C230.29 20.832 230.211 20.551 230.054 20.2975C229.896 20.0441 229.608 19.8099 229.19 19.595C228.771 19.3802 228.171 19.168 227.389 18.9587C226.183 18.6501 225.183 18.2479 224.39 17.7521C223.597 17.2562 223.007 16.6612 222.621 15.9669C222.236 15.2727 222.043 14.4628 222.043 13.5372C222.043 12.4904 222.301 11.5895 222.817 10.8347C223.333 10.0799 224.039 9.49862 224.936 9.09091C225.832 8.6832 226.84 8.47934 227.959 8.47934C228.633 8.47934 229.182 8.54545 229.605 8.67769C230.029 8.80992 230.358 8.94215 230.591 9.07438C230.825 9.20661 231.002 9.27273 231.121 9.27273C231.251 9.27273 231.444 9.20937 231.7 9.08264C231.955 8.95592 232.213 8.83196 232.474 8.71074C232.735 8.58953 232.952 8.52893 233.126 8.52893C233.321 8.52893 233.479 8.59504 233.598 8.72727C233.718 8.8595 233.8 9.0854 233.843 9.40496L234.267 12.4463C234.343 12.8871 234.354 13.2259 234.299 13.4628C234.245 13.6997 234.104 13.8512 233.876 13.9174C233.691 13.9614 233.495 13.9256 233.289 13.8099C233.082 13.6942 232.876 13.5096 232.669 13.2562C231.876 12.0551 231.151 11.2066 230.494 10.7107C229.836 10.2149 229.138 9.96694 228.399 9.96694C227.867 9.96694 227.465 10.0826 227.193 10.314C226.921 10.5455 226.786 10.8485 226.786 11.2231C226.786 11.4766 226.845 11.7135 226.965 11.9339C227.084 12.1543 227.304 12.3609 227.625 12.5537C227.946 12.7466 228.399 12.9366 228.986 13.124C230.562 13.6088 231.784 14.124 232.653 14.6694C233.522 15.2149 234.131 15.8402 234.479 16.5455C234.826 17.2507 235 18.0716 235 19.0083C235 20.551 234.484 21.7686 233.452 22.6612Z" fill="#333D4B"/>
<path id="Combined Shape" d="M10.5107 11.5026C14.0251 7.99128 19.2341 7.48436 22.123 10.3776C25.0134 13.2681 24.5099 18.4778 20.9971 21.9909C19.3097 23.6783 17.1841 24.7316 15.0107 24.9567C14.7213 24.9852 14.4347 24.9996 14.1543 24.9996C12.2855 24.9996 10.6157 24.3447 9.38574 23.1149C7.96977 21.7004 7.31588 19.7014 7.54688 17.4889C7.77048 15.3155 8.82341 13.19 10.5107 11.5026ZM21.9434 10.5582C21.6187 10.9498 21.3224 11.3602 21.0273 11.7692C20.4488 12.571 19.8734 13.3678 19.0918 14.0104C17.8779 15.0085 16.5467 15.3946 15.0869 15.817C15.0352 15.832 14.9827 15.8469 14.9307 15.8619C11.5935 16.8311 9.94348 19.6527 9.5625 22.9362C9.89122 22.5412 10.1926 22.1311 10.4922 21.7233C11.1425 20.8377 11.7859 19.9622 12.6875 19.2731C13.8394 18.3942 15.0855 18.0459 16.4414 17.6754C19.8522 16.7395 21.5458 13.8941 21.9434 10.5582ZM1.87695 2.87757C4.76586 -0.0142784 9.97489 0.491242 13.4893 4.00257C14.4252 4.93855 15.1428 6.01547 15.6543 7.15394C13.9743 7.44344 12.3463 8.14533 10.9033 9.19984C10.3544 8.85494 9.75571 8.55945 9.06738 8.35999C7.54803 7.91902 6.16314 7.54436 4.90625 6.50941C3.72748 5.53898 3.01848 4.21418 2.05566 3.05628C2.45169 6.39226 4.14675 9.23747 7.55762 10.1735C8.13347 10.3309 8.68526 10.4932 9.22363 10.6852C7.59779 12.3981 6.52689 14.4845 6.15332 16.6549C5.01487 16.1419 3.93596 15.4268 3 14.4909C-0.508306 10.9778 -1.01345 5.76808 1.87695 2.87757Z" fill="#0E8784"/>
</g>
</svg>
